<svg width="16" height="16" viewBox="0 0 16 16" fill="none" xmlns="http://www.w3.org/2000/svg">
<path d="M1.48352 10.019H7.48652V11.019H1.48352V10.019ZM1.48352 12.519H7.48652V13.519H1.48352V12.519ZM9.50002 2.51902H14.4835V3.51902H9.50002V2.51902ZM8.50002 5.01702H14.4835V6.01702H8.50002V5.01702ZM13.2525 9.04402L11.4845 10.812L9.71702 9.04402L9.01002 9.75102L10.7775 11.519L9.00952 13.287L9.71702 13.994L11.4845 12.226L13.2525 13.994L13.9595 13.287L12.1915 11.519L13.9595 9.75102L13.2525 9.04402ZM3.98352 4.60652L2.68852 3.31152L1.98352 4.01652L3.98352 6.01652L7.98352 2.01652L7.27852 1.31152L3.98352 4.60652Z" fill="black"/>
</svg>
