<svg width="24" height="24" viewBox="0 0 21 21" fill="none" xmlns="http://www.w3.org/2000/svg">
<path d="M13.3241 8.43602L9.49506 12.19C9.13106 12.55 8.93106 13.042 8.93906 13.559C8.94997 14.082 9.16536 14.5799 9.53906 14.946C9.91406 15.317 10.4191 15.53 10.9421 15.539C11.1981 15.5444 11.4526 15.4985 11.6906 15.4041C11.9287 15.3096 12.1454 15.1685 12.3281 14.989L16.1561 11.235C16.5172 10.8778 16.802 10.4508 16.9931 9.98018C17.1843 9.50952 17.2778 9.00492 17.2681 8.49702C17.247 7.45094 16.817 6.45474 16.0701 5.72202C15.3211 4.98088 14.3156 4.55653 13.2621 4.53702C12.7506 4.52681 12.2421 4.61865 11.7665 4.80718C11.2909 4.99571 10.8577 5.27714 10.4921 5.63502L6.66106 9.39002C6.11976 9.92618 5.69292 10.5666 5.40638 11.2726C5.11985 11.9785 4.97957 12.7353 4.99406 13.497C5.02626 15.0658 5.67171 16.5595 6.79206 17.658C7.91492 18.7695 9.42244 19.4061 11.0021 19.436C11.7696 19.452 12.5327 19.3147 13.2465 19.032C13.9603 18.7494 14.6105 18.3271 15.1591 17.79L18.9881 14.034" stroke="black" stroke-width="2" stroke-linecap="round" stroke-linejoin="round"/>
</svg>
