<svg width="24" height="24" viewBox="0 0 24 24" fill="none" xmlns="http://www.w3.org/2000/svg">
<path d="M16.3775 17.421H4.08352C3.71297 17.4209 3.35764 17.2736 3.09566 17.0115C2.83369 16.7494 2.68652 16.3941 2.68652 16.0235V4.147C2.68652 3.77649 2.83371 3.42116 3.0957 3.15917C3.35768 2.89718 3.71302 2.75 4.08352 2.75H11.2655L16.3775 17.421Z" stroke="black" stroke-width="1.5" stroke-linecap="round" stroke-linejoin="round"/>
<path d="M11.4 17.4205L12.7345 21.25H19.9165C20.287 21.25 20.6423 21.1029 20.9043 20.8409C21.1663 20.5789 21.3135 20.2235 21.3135 19.853V7.97653C21.3134 7.60607 21.1661 7.25081 20.9042 6.98885C20.6422 6.72689 20.287 6.57967 19.9165 6.57953H12.6M12.7345 21.25L16.3775 17.421M8.02199 5.53503C8.54712 5.53503 9.05074 5.74364 9.42206 6.11496C9.79339 6.48629 10.002 6.98991 10.002 7.51503V9.96303C10.002 10.2231 9.95078 10.4805 9.85127 10.7207C9.75177 10.961 9.60592 11.1792 9.42206 11.3631C9.2382 11.547 9.01993 11.6928 8.77971 11.7923C8.53948 11.8918 8.28201 11.943 8.02199 11.943C7.76198 11.943 7.5045 11.8918 7.26428 11.7923C7.02405 11.6928 6.80578 11.547 6.62192 11.3631C6.43806 11.1792 6.29222 10.961 6.19271 10.7207C6.09321 10.4805 6.04199 10.2231 6.04199 9.96303V7.51553C6.04199 6.99041 6.2506 6.48678 6.62192 6.11546C6.99324 5.74414 7.49686 5.53553 8.02199 5.53553" stroke="black" stroke-width="1.5" stroke-linecap="round" stroke-linejoin="round"/>
<path d="M11.3435 10.5525C11.1947 11.3242 10.7817 12.0199 10.1757 12.5202C9.56958 13.0205 8.8082 13.2942 8.0223 13.2942C7.2364 13.2942 6.47502 13.0205 5.86895 12.5202C5.26287 12.0199 4.84993 11.3242 4.70105 10.5525M8.0223 13.2942L8.02205 14.9625M13.9845 10.5525H19.6096M15.692 15.452H19.6096M14.8656 13.0025H19.6096" stroke="black" stroke-width="1.5" stroke-linecap="round" stroke-linejoin="round"/>
</svg>