<svg width="24" height="24" viewBox="0 0 24 24" fill="none" xmlns="http://www.w3.org/2000/svg">
<path d="M3 4H21M12 15V9M5 4H19V15.8C19 16.92 19 17.48 18.782 17.908C18.5903 18.2843 18.2843 18.5903 17.908 18.782C17.48 19 16.92 19 15.8 19H8.2C7.08 19 6.52 19 6.092 18.782C5.71569 18.5903 5.40974 18.2843 5.218 17.908C5 17.48 5 16.92 5 15.8V4Z" stroke="black" stroke-width="2" stroke-linecap="round"/>
<path d="M9 12L11.894 9.106C11.9221 9.07791 11.9602 9.06213 12 9.06213C12.0398 9.06213 12.0779 9.07791 12.106 9.106L15 12" stroke="black" stroke-width="2" stroke-linecap="round"/>
</svg>
