<svg width="24" height="24" viewBox="0 0 24 24" fill="none" xmlns="http://www.w3.org/2000/svg">
<path d="M12 7.333C12 5.5 10.5 4 8.667 4H2V16H8.708C12 16 12 19.334 12 19.334M12 19.334V7.333C12 5.499 13.5 4 15.333 4H22V16H15.333C12 16 12 19.334 12 19.334ZM13.875 20.458C14.0837 20.0259 14.4087 19.6605 14.8136 19.4029C15.2185 19.1454 15.6872 19.0058 16.167 19H21M10.125 20.458C9.92016 20.0229 9.59602 19.655 9.19028 19.3969C8.78454 19.1388 8.31387 19.0011 7.833 19H3" stroke="black" stroke-width="1.5" stroke-miterlimit="10" stroke-linecap="round" stroke-linejoin="round"/>
</svg>
