<svg width="16" height="16" viewBox="0 0 16 16" fill="none" xmlns="http://www.w3.org/2000/svg">
<path d="M5.75 8C6.16421 8 6.5 7.66421 6.5 7.25C6.5 6.83579 6.16421 6.5 5.75 6.5C5.33579 6.5 5 6.83579 5 7.25C5 7.66421 5.33579 8 5.75 8Z" fill="black"/>
<path d="M8.00004 9C9.41942 9 10.6132 9.92281 10.991 11.1822C11.0016 11.2198 11.0032 11.2594 10.9958 11.2977C10.9883 11.3361 10.972 11.3722 10.9481 11.4031C10.9242 11.434 10.8933 11.4588 10.8581 11.4757C10.8228 11.4925 10.7841 11.5008 10.745 11.5H5.25473C5.2158 11.5006 5.17727 11.4921 5.14221 11.4751C5.10715 11.4582 5.07653 11.4333 5.05279 11.4024C5.02906 11.3715 5.01286 11.3356 5.00549 11.2973C4.99812 11.2591 4.99979 11.2197 5.01036 11.1822C5.38504 9.92281 6.57911 9 8.00004 9Z" fill="black"/>
<path d="M10.25 8C10.6642 8 11 7.66421 11 7.25C11 6.83579 10.6642 6.5 10.25 6.5C9.83579 6.5 9.5 6.83579 9.5 7.25C9.5 7.66421 9.83579 8 10.25 8Z" fill="black"/>
<path d="M8 14.5C11.5899 14.5 14.5 11.5899 14.5 8C14.5 4.41015 11.5899 1.5 8 1.5C4.41015 1.5 1.5 4.41015 1.5 8C1.5 11.5899 4.41015 14.5 8 14.5Z" stroke="black" stroke-miterlimit="10"/>
</svg>
