<svg width="24" height="24" viewBox="0 0 24 24" fill="none" xmlns="http://www.w3.org/2000/svg">
<path d="M22 22L18 18H8C7.45 18 6.97933 17.8043 6.588 17.413C6.19667 17.0217 6.00067 16.5507 6 16V15H17C17.55 15 18.021 14.8043 18.413 14.413C18.805 14.0217 19.0007 13.5507 19 13V6H20C20.55 6 21.021 6.196 21.413 6.588C21.805 6.98 22.0007 7.45067 22 8V22ZM4 12.175L5.175 11H15V4H4V12.175ZM2 17V4C2 3.45 2.196 2.97933 2.588 2.588C2.98 2.19667 3.45067 2.00067 4 2H15C15.55 2 16.021 2.196 16.413 2.588C16.805 2.98 17.0007 3.45067 17 4V11C17 11.55 16.8043 12.021 16.413 12.413C16.0217 12.805 15.5507 13.0007 15 13H6L2 17Z" fill="black"/>
</svg>
