<svg width="16" height="16" viewBox="0 0 16 16" fill="none" xmlns="http://www.w3.org/2000/svg">
<path d="M1.366 2.81305L2.301 1.87305L13.56 13.187L12.625 14.127L7.928 9.40705C6.708 9.41942 5.5422 9.91284 4.684 10.78L3.356 9.44705C4.16483 8.63416 5.17432 8.04973 6.282 7.75305L4.796 6.26005C3.75925 6.68686 2.81843 7.31691 2.029 8.11305L0.703003 6.78005C1.48943 5.99648 2.39624 5.34389 3.389 4.84705L1.366 2.81305ZM15.297 6.78005L13.97 8.11305C13.178 7.31651 12.2349 6.68627 11.1959 6.25936C10.157 5.83244 9.0432 5.61746 7.92 5.62705L6.21 3.90705C9.414 3.34705 12.824 4.29305 15.298 6.78005M10.177 7.89305C11.1059 8.21929 11.9494 8.75042 12.645 9.44705L12.18 9.90705L10.177 7.89305ZM6.011 12.113L8.001 14.113L9.991 12.113C9.73064 11.85 9.4207 11.6412 9.07913 11.4987C8.73755 11.3562 8.37111 11.2828 8.001 11.2828C7.63089 11.2828 7.26445 11.3562 6.92288 11.4987C6.5813 11.6412 6.27137 11.85 6.011 12.113Z" fill="black"/>
</svg>
