<svg width="512" height="512" viewBox="0 0 512 512" fill="none" xmlns="http://www.w3.org/2000/svg">
<rect width="512" height="512" fill="#F0FDF4"/>
<path d="M238.958 197.333H272.042V213.875H238.958V197.333ZM238.958 131.167H272.042V147.708H238.958V131.167ZM238.958 230.417H272.042V246.958H238.958V230.417Z" fill="#22C55E"/>
<path d="M404.375 263.5V213.875C353.945 213.859 305.084 231.406 266.186 263.5H244.814C205.916 231.406 157.055 213.859 106.625 213.875V263.5C102.238 263.5 98.0304 265.243 94.9283 268.345C91.8261 271.447 90.0833 275.655 90.0833 280.042V313.125C90.0833 317.512 91.8261 321.72 94.9283 324.822C98.0304 327.924 102.238 329.667 106.625 329.667V395.833C161.909 395.778 215.14 416.775 255.5 454.556C295.905 416.846 349.106 395.861 404.375 395.833V329.667C408.762 329.667 412.97 327.924 416.072 324.822C419.174 321.72 420.917 317.512 420.917 313.125V280.042C420.917 275.655 419.174 271.447 416.072 268.345C412.97 265.243 408.762 263.5 404.375 263.5Z" fill="#15803D"/>
<path d="M205.875 147.708C215.011 147.708 222.417 140.302 222.417 131.167C222.417 122.031 215.011 114.625 205.875 114.625C196.739 114.625 189.333 122.031 189.333 131.167C189.333 140.302 196.739 147.708 205.875 147.708Z" fill="#14532D"/>
<path d="M305.125 147.708C314.261 147.708 321.667 140.302 321.667 131.167C321.667 122.031 314.261 114.625 305.125 114.625C295.989 114.625 288.583 122.031 288.583 131.167C288.583 140.302 295.989 147.708 305.125 147.708Z" fill="#14532D"/>
<path d="M321.667 197.333H189.333C176.176 197.32 163.561 192.088 154.258 182.784C144.954 173.48 139.721 160.866 139.708 147.708V114.625C139.721 101.468 144.954 88.853 154.258 79.5493C163.561 70.2457 176.176 65.0131 189.333 65H321.667C334.824 65.0131 347.439 70.2457 356.742 79.5493C366.046 88.853 371.279 101.468 371.292 114.625V147.708C371.279 160.866 366.046 173.48 356.742 182.784C347.439 192.088 334.824 197.32 321.667 197.333ZM189.333 98.0833C184.946 98.0833 180.739 99.8261 177.637 102.928C174.534 106.03 172.792 110.238 172.792 114.625V147.708C172.792 152.095 174.534 156.303 177.637 159.405C180.739 162.507 184.946 164.25 189.333 164.25H321.667C326.054 164.25 330.261 162.507 333.363 159.405C336.466 156.303 338.208 152.095 338.208 147.708V114.625C338.208 110.238 336.466 106.03 333.363 102.928C330.261 99.8261 326.054 98.0833 321.667 98.0833H189.333Z" fill="#15803D"/>
</svg>
